<?xml version="1.0" encoding="UTF-8" standalone="no"?>
<!DOCTYPE svg PUBLIC "-//W3C//DTD SVG 1.1//EN" "http://www.w3.org/Graphics/SVG/1.1/DTD/svg11.dtd">
<svg width="100%" height="100%" viewBox="0 0 1000 150" version="1.1" xmlns="http://www.w3.org/2000/svg" xmlns:xlink="http://www.w3.org/1999/xlink" xml:space="preserve" xmlns:serif="http://www.serif.com/" style="fill-rule:evenodd;clip-rule:evenodd;stroke-linejoin:round;stroke-miterlimit:2;">
    <g transform="matrix(1,0,0,1,0,25.5245)">
        <path d="M202.028,19.217L202.028,35.638L202.37,35.638C203.506,32.886 205.051,30.359 206.986,28.016C208.925,25.681 211.146,23.68 213.656,22.039C216.161,20.384 218.834,19.09 221.681,18.173C224.551,17.273 227.495,16.813 230.589,16.813C232.182,16.813 233.946,17.085 235.898,17.655L235.898,40.249C234.758,40.021 233.393,39.828 231.782,39.639C230.185,39.481 228.632,39.398 227.166,39.398C222.708,39.398 218.948,40.135 215.876,41.618C212.8,43.101 210.321,45.111 208.434,47.704C206.56,50.254 205.222,53.247 204.423,56.665C203.62,60.096 203.221,63.8 203.221,67.788L203.221,107.662L178.92,107.662L178.92,19.217L202.028,19.217Z" style="fill:rgb(35,31,32);fill-rule:nonzero;"/>
    </g>
    <g transform="matrix(1,0,0,1,0,27.7522)">
        <path d="M296.711,64.279C295.175,64.788 293.521,65.236 291.752,65.56C289.98,65.898 288.137,66.183 286.188,66.416C284.249,66.662 282.314,66.942 280.374,67.285C278.549,67.618 276.754,68.088 274.986,68.654C273.222,69.22 271.686,70.001 270.378,70.944C269.053,71.927 268.009,73.143 267.197,74.635C266.412,76.122 265.999,78.013 265.999,80.278C265.999,82.458 266.412,84.266 267.197,85.749C268.009,87.246 269.097,88.413 270.462,89.264C271.826,90.124 273.424,90.721 275.249,91.063C277.07,91.401 278.952,91.572 280.883,91.572C285.671,91.572 289.374,90.778 292.016,89.168C294.635,87.588 296.57,85.684 297.821,83.454C299.089,81.221 299.844,78.965 300.129,76.693C300.423,74.406 300.577,72.577 300.577,71.221L300.577,62.142C299.532,63.055 298.255,63.761 296.711,64.279M248.719,29.978C251.229,26.218 254.437,23.194 258.298,20.904C262.168,18.626 266.561,16.999 271.401,16.042C276.245,15.063 281.12,14.585 286.017,14.585C290.471,14.585 294.977,14.91 299.532,15.515C304.113,16.147 308.269,17.389 312.025,19.193C315.785,21.031 318.87,23.567 321.275,26.832C323.653,30.083 324.864,34.366 324.864,39.741L324.864,85.749C324.864,89.769 325.079,93.564 325.527,97.228C326.005,100.866 326.795,103.613 327.94,105.434L303.31,105.434C302.854,104.056 302.468,102.674 302.183,101.248C301.915,99.822 301.7,98.369 301.586,96.873C297.707,100.866 293.143,103.67 287.895,105.25C282.656,106.86 277.294,107.663 271.826,107.663C267.592,107.663 263.665,107.145 260.001,106.101C256.354,105.096 253.16,103.481 250.431,101.327C247.697,99.155 245.556,96.425 244.02,93.112C242.484,89.791 241.712,85.877 241.712,81.318C241.712,76.302 242.598,72.138 244.362,68.895C246.13,65.666 248.403,63.055 251.198,61.128C254.007,59.184 257.201,57.723 260.786,56.762C264.376,55.779 268.009,55.033 271.655,54.437C275.306,53.866 278.895,53.423 282.428,53.076C285.96,52.725 289.089,52.216 291.827,51.527C294.591,50.861 296.75,49.864 298.352,48.539C299.949,47.24 300.691,45.327 300.577,42.808C300.577,40.176 300.129,38.109 299.278,36.556C298.422,35.042 297.286,33.839 295.877,32.984C294.42,32.124 292.783,31.549 290.901,31.255C289.023,30.992 286.983,30.829 284.824,30.829C280.032,30.829 276.276,31.874 273.538,33.923C270.804,35.972 269.194,39.39 268.746,44.195L244.445,44.195C244.792,38.478 246.218,33.743 248.719,29.978" style="fill:rgb(35,31,32);fill-rule:nonzero;"/>
    </g>
    <g transform="matrix(1,0,0,1,0,30.1501)">
        <path d="M403.571,103.037L403.571,90.715L403.053,90.715C399.977,95.845 395.98,99.562 391.07,101.839C386.155,104.121 381.144,105.266 376.019,105.266C369.525,105.266 364.176,104.406 360.02,102.695C355.843,100.988 352.569,98.566 350.178,95.424C347.786,92.278 346.097,88.464 345.132,83.967C344.166,79.447 343.679,74.471 343.679,68.977L343.679,14.593L367.962,14.593L367.962,64.545C367.962,71.838 369.108,77.297 371.398,80.873C373.68,84.476 377.73,86.266 383.535,86.266C390.152,86.266 394.949,84.291 397.91,80.369C400.877,76.433 402.36,69.96 402.36,60.943L402.36,14.584L426.661,14.584L426.661,103.037L403.571,103.037Z" style="fill:rgb(35,31,32);fill-rule:nonzero;"/>
    </g>
    <g transform="matrix(1,0,0,1,0,-5.7874)">
        <rect x="445.821" y="16.815" width="24.305" height="122.157" style="fill:rgb(35,31,32);"/>
    </g>
    <g transform="matrix(1,0,0,1,0,27.921)">
        <path d="M565.412,105.266L549.673,45.888L549.322,45.888L534.28,105.266L509.128,105.266L481.062,16.813L506.732,16.813L522.976,76.863L523.314,76.863L538.044,16.813L561.652,16.813L576.707,76.7L577.045,76.7L593.289,16.813L618.27,16.813L590.376,105.266L565.412,105.266Z" style="fill:rgb(237,28,36);fill-rule:nonzero;"/>
    </g>
    <g transform="matrix(1,0,0,1,0,27.7432)">
        <path d="M679.782,64.288C678.246,64.797 676.597,65.236 674.828,65.569C673.06,65.907 671.208,66.192 669.264,66.425C667.32,66.671 665.39,66.951 663.45,67.294C661.62,67.618 659.826,68.097 658.044,68.663C656.285,69.229 654.744,70.001 653.437,70.953C652.12,71.936 651.072,73.152 650.269,74.644C649.47,76.131 649.071,78.022 649.071,80.286C649.071,82.459 649.47,84.275 650.269,85.758C651.072,87.246 652.151,88.422 653.52,89.273C654.885,90.133 656.478,90.73 658.307,91.072C660.142,91.41 662.024,91.581 663.972,91.581C668.76,91.581 672.463,90.787 675.087,89.177C677.707,87.597 679.642,85.692 680.897,83.463C682.147,81.23 682.92,78.974 683.205,76.701C683.49,74.415 683.635,72.577 683.635,71.23L683.635,62.151C682.608,63.055 681.327,63.77 679.782,64.288M631.795,29.987C634.314,26.226 637.504,23.203 641.383,20.913C645.258,18.635 649.61,17.008 654.459,16.051C659.299,15.072 664.183,14.585 669.093,14.585C673.542,14.585 678.049,14.919 682.608,15.524C687.167,16.156 691.327,17.398 695.096,19.202C698.857,21.04 701.942,23.576 704.346,26.836C706.742,30.092 707.94,34.375 707.94,39.75L707.94,85.758C707.94,89.769 708.164,93.573 708.616,97.237C709.076,100.875 709.871,103.622 711.012,105.443L686.369,105.443C685.908,104.061 685.539,102.683 685.258,101.257C684.978,99.831 684.776,98.378 684.657,96.882C680.783,100.875 676.224,103.679 670.967,105.259C665.727,106.869 660.357,107.672 654.885,107.672C650.664,107.672 646.736,107.154 643.09,106.11C639.426,105.105 636.249,103.49 633.502,101.336C630.768,99.155 628.627,96.434 627.082,93.121C625.551,89.8 624.77,85.886 624.77,81.326C624.77,76.311 625.656,72.147 627.433,68.904C629.202,65.674 631.475,63.055 634.274,61.137C637.078,59.193 640.273,57.732 643.862,56.771C647.451,55.78 651.072,55.042 654.714,54.446C658.364,53.875 661.954,53.432 665.504,53.077C669.045,52.734 672.178,52.225 674.912,51.536C677.65,50.865 679.809,49.873 681.41,48.539C683.007,47.249 683.749,45.336 683.635,42.817C683.635,40.185 683.205,38.118 682.354,36.565C681.494,35.051 680.357,33.844 678.935,32.993C677.509,32.133 675.855,31.549 673.977,31.264C672.094,31.001 670.067,30.838 667.895,30.838C663.095,30.838 659.325,31.883 656.592,33.923C653.862,35.981 652.265,39.399 651.809,44.204L627.508,44.204C627.859,38.486 629.272,33.743 631.795,29.987" style="fill:rgb(237,28,36);fill-rule:nonzero;"/>
    </g>
    <g transform="matrix(1,0,0,1,0,-5.7874)">
        <rect x="727.424" y="16.815" width="24.301" height="122.157" style="fill:rgb(237,28,36);"/>
    </g>
    <g transform="matrix(1,0,0,1,0,2.2462)">
        <path d="M819.478,42.488L819.478,58.732L801.681,58.732L801.681,102.537C801.681,106.636 802.369,109.391 803.747,110.752C805.116,112.103 807.85,112.801 811.957,112.801C813.326,112.801 814.634,112.744 815.884,112.647C817.139,112.516 818.337,112.362 819.478,112.103L819.478,130.941C817.425,131.296 815.143,131.507 812.637,131.603C810.127,131.735 807.679,131.792 805.287,131.792C801.514,131.792 797.938,131.542 794.585,131.029C791.215,130.52 788.249,129.515 785.686,128.032C783.124,126.548 781.097,124.442 779.618,121.695C778.139,118.975 777.393,115.368 777.393,110.914L777.393,58.732L762.68,58.732L762.68,42.488L777.393,42.488L777.393,15.962L801.681,15.962L801.681,42.488L819.478,42.488Z" style="fill:rgb(237,28,36);fill-rule:nonzero;"/>
    </g>
    <g transform="matrix(1,0,0,1,0,27.7409)">
        <path d="M884.578,37.693C881.669,34.503 877.259,32.897 871.331,32.897C867.443,32.897 864.209,33.56 861.66,34.859C859.084,36.179 857.039,37.807 855.49,39.751C853.954,41.686 852.87,43.727 852.243,45.908C851.615,48.062 851.242,50.015 851.128,51.726L890.647,51.726C889.51,45.561 887.483,40.883 884.578,37.693M857.114,84.219C860.76,87.751 866.021,89.529 872.866,89.529C877.768,89.529 881.985,88.313 885.521,85.847C889.054,83.412 891.213,80.801 892.029,78.08L913.412,78.08C909.993,88.677 904.741,96.26 897.672,100.828C890.59,105.391 882.042,107.673 872.006,107.673C865.047,107.673 858.781,106.541 853.182,104.338C847.596,102.109 842.861,98.95 838.978,94.834C835.108,90.735 832.098,85.834 830.005,80.13C827.881,74.416 826.841,68.155 826.841,61.301C826.841,54.688 827.912,48.532 830.079,42.823C832.242,37.127 835.332,32.182 839.329,28.035C843.327,23.862 848.083,20.589 853.608,18.193C859.141,15.784 865.275,14.586 872.006,14.586C879.541,14.586 886.087,16.052 891.673,18.961C897.255,21.861 901.854,25.775 905.46,30.668C909.05,35.569 911.643,41.169 913.24,47.457C914.838,53.718 915.399,60.287 914.952,67.11L851.128,67.11C851.466,74.987 853.463,80.696 857.114,84.219" style="fill:rgb(237,28,36);fill-rule:nonzero;"/>
    </g>
    <g transform="matrix(1,0,0,1,0,25.516)">
        <path d="M952.413,19.218L952.413,35.646L952.755,35.646C953.896,32.895 955.432,30.368 957.389,28.025C959.311,25.69 961.527,23.689 964.054,22.044C966.573,20.394 969.241,19.091 972.097,18.182C974.95,17.283 977.911,16.813 980.996,16.813C982.589,16.813 984.349,17.094 986.288,17.665L986.288,40.258C985.152,40.03 983.783,39.837 982.19,39.648C980.588,39.49 979.057,39.407 977.574,39.407C973.129,39.407 969.355,40.144 966.288,41.627C963.199,43.111 960.719,45.12 958.837,47.713C956.963,50.263 955.607,53.247 954.809,56.674C954.01,60.101 953.611,63.809 953.611,67.793L953.611,107.671L929.323,107.671L929.323,19.218L952.413,19.218Z" style="fill:rgb(237,28,36);fill-rule:nonzero;"/>
    </g>
    <g transform="matrix(1,0,0,1,0,45.4394)">
        <path d="M58.676,46.271C58.36,41.255 57.873,36.451 57.237,31.87C56.381,25.889 54.569,21.518 51.796,18.745C49.022,15.972 44.49,14.585 38.193,14.585L14.37,14.585L14.37,89.975L70.339,89.975C68.189,85.249 65.236,78.08 63.112,70.216C60.387,60.19 58.992,51.286 58.676,46.271" style="fill:rgb(237,28,36);fill-rule:nonzero;"/>
    </g>
    <g transform="matrix(1,0,0,1,0,-96.863)">
        <path d="M53.554,135.125C56.437,132.572 57.876,128.399 57.876,122.642C57.876,117.1 56.437,113.071 53.554,110.566C52.207,109.39 50.513,108.517 48.534,107.894L14.369,107.894L14.369,138.969L40.592,138.969C46.353,138.969 50.675,137.684 53.554,135.125" style="fill:rgb(237,28,36);fill-rule:nonzero;"/>
    </g>
    <path d="M99.965,135.414L135.867,135.414L117.929,63.364L117.609,63.364L99.965,135.414Z" style="fill:rgb(237,28,36);"/>
    <g transform="matrix(1,0,0,1,0,-34.3202)">
        <path d="M81.145,45.351C82.352,48.765 82.997,52.389 82.997,56.255C82.997,62.978 81.584,68.796 78.762,73.706C75.928,78.608 71.312,82.342 64.914,84.905L64.914,85.225C68.007,86.081 70.57,87.379 72.602,89.143C74.624,90.907 76.279,92.987 77.56,95.388C78.841,97.783 79.772,100.421 80.36,103.308C80.943,106.191 81.342,109.069 81.558,111.948C81.663,113.764 81.768,115.897 81.878,118.345C81.983,120.803 82.172,123.313 82.439,125.862C82.707,128.425 83.133,130.851 83.721,133.151C84.296,135.432 85.178,137.372 86.349,138.969L86.406,138.969L106.244,61.2L129.773,61.2L138.751,97.415L138.751,45.351L81.145,45.351Z" style="fill:rgb(237,28,36);fill-rule:nonzero;"/>
    </g>
</svg>
